<?xml version="1.0" encoding="utf-8"?>
<!-- Generator: Adobe Illustrator 25.3.1, SVG Export Plug-In . SVG Version: 6.00 Build 0)  -->
<svg version="1.1" id="Layer_1" xmlns="http://www.w3.org/2000/svg" xmlns:xlink="http://www.w3.org/1999/xlink" x="0px" y="0px"
	 viewBox="0 0 250 150" style="enable-background:new 0 0 250 150;" xml:space="preserve">
<style type="text/css">
	.st0{fill:#ED1C24;}
	.st1{fill:none;stroke:#000000;stroke-miterlimit:10;}
	.st2{fill:#FFFFFF;}
	.st3{font-family:'Calibri-Bold';}
	.st4{font-size:40px;}
</style>
<g>
	<path class="st0" d="M90.97,96.63c0,8.25-6.75,15-15,15h-30c-8.25,0-15-6.75-15-15v-45c0-8.25,6.75-15,15-15h30
		c8.25,0,15,6.75,15,15V96.63z"/>
	<path class="st1" d="M90.97,96.63c0,8.25-6.75,15-15,15h-30c-8.25,0-15-6.75-15-15v-45c0-8.25,6.75-15,15-15h30
		c8.25,0,15,6.75,15,15V96.63z"/>
</g>
<g>
	<path class="st2" d="M80.97,54.63c0,1.1-0.9,2-2,2h-36c-1.1,0-2-0.9-2-2v-1c0-1.1,0.9-2,2-2h36c1.1,0,2,0.9,2,2V54.63z"/>
	<path class="st1" d="M80.97,54.63c0,1.1-0.9,2-2,2h-36c-1.1,0-2-0.9-2-2v-1c0-1.1,0.9-2,2-2h36c1.1,0,2,0.9,2,2V54.63z"/>
</g>
<g>
	<path class="st2" d="M81.13,74.79c0,1.1-0.9,2-2,2h-36c-1.1,0-2-0.9-2-2v-1c0-1.1,0.9-2,2-2h36c1.1,0,2,0.9,2,2V74.79z"/>
	<path class="st1" d="M81.13,74.79c0,1.1-0.9,2-2,2h-36c-1.1,0-2-0.9-2-2v-1c0-1.1,0.9-2,2-2h36c1.1,0,2,0.9,2,2V74.79z"/>
</g>
<g>
	<path class="st2" d="M81.13,94.79c0,1.1-0.9,2-2,2h-36c-1.1,0-2-0.9-2-2v-1c0-1.1,0.9-2,2-2h36c1.1,0,2,0.9,2,2V94.79z"/>
	<path class="st1" d="M81.13,94.79c0,1.1-0.9,2-2,2h-36c-1.1,0-2-0.9-2-2v-1c0-1.1,0.9-2,2-2h36c1.1,0,2,0.9,2,2V94.79z"/>
</g>
<text transform="matrix(1 0 0 1 103.1891 83.4677)" class="st3 st4">Trilogy</text>
</svg>
